<svg width="624" height="272" viewBox="0 0 624 272" fill="none" xmlns="http://www.w3.org/2000/svg">
<mask id="mask0_8_1173" style="mask-type:alpha" maskUnits="userSpaceOnUse" x="88" y="89" width="183" height="183">
<path d="M179.584 180.585L269.169 225.377M179.584 180.585L90 225.377M179.584 180.585L179.585 91M179.584 180.585V270.169M179.584 180.585L90 135.792M179.584 180.585L269.169 135.792M269.169 225.377L179.584 270.169M269.169 225.377V135.792M90 225.377L179.584 270.169M90 225.377V135.792M179.585 91L269.169 135.792M179.585 91L90 135.792" stroke="#008427" stroke-width="3" stroke-miterlimit="1"/>
</mask>
<g mask="url(#mask0_8_1173)">
<path d="M348 9H-26V306H348V9Z" fill="#008427"/>
</g>
<g clip-path="url(#clip0_8_1173)">
<path d="M91.5057 49L179 92.8022V180L91 136.37L91.5057 49Z" fill="#008427"/>
<mask id="mask1_8_1173" style="mask-type:alpha" maskUnits="userSpaceOnUse" x="88" y="0" width="183" height="183">
<path d="M179.584 91.5845L269.169 136.377M179.584 91.5845L90 136.377M179.584 91.5845L179.585 2M179.584 91.5845V181.169M179.584 91.5845L90 46.7922M179.584 91.5845L269.169 46.7922M269.169 136.377L179.584 181.169M269.169 136.377V46.7922M90 136.377L179.584 181.169M90 136.377V46.7922M179.585 2L269.169 46.7922M179.585 2L90 46.7922" stroke="#008427" stroke-width="3" stroke-miterlimit="1"/>
</mask>
<g mask="url(#mask1_8_1173)">
<path d="M348 -80H-26V217H348V-80Z" fill="#008427"/>
</g>
</g>
<g clip-path="url(#clip1_8_1173)">
<path d="M3.50575 94L91 137.802V225L3 181.37L3.50575 94Z" fill="#008427"/>
<mask id="mask2_8_1173" style="mask-type:alpha" maskUnits="userSpaceOnUse" x="0" y="45" width="183" height="183">
<path d="M91.5844 136.585L181.169 181.377M91.5844 136.585L2 181.377M91.5844 136.585L91.5845 47M91.5844 136.585V226.169M91.5844 136.585L2 91.7922M91.5844 136.585L181.169 91.7922M181.169 181.377L91.5844 226.169M181.169 181.377V91.7922M2 181.377L91.5844 226.169M2 181.377V91.7922M91.5845 47L181.169 91.7922M91.5845 47L2 91.7922" stroke="#008427" stroke-width="3" stroke-miterlimit="1"/>
</mask>
<g mask="url(#mask2_8_1173)">
<path d="M260 -35H-114V262H260V-35Z" fill="#008427"/>
</g>
</g>
<path d="M255.83 181.085V173.273H310.375V181.085H287.506V246H278.699V181.085H255.83ZM331.46 247.278C328.003 247.278 324.867 246.627 322.049 245.325C319.232 244 316.995 242.094 315.338 239.608C313.681 237.098 312.852 234.068 312.852 230.517C312.852 227.392 313.467 224.859 314.699 222.918C315.93 220.953 317.575 219.414 319.635 218.301C321.694 217.188 323.967 216.36 326.453 215.815C328.962 215.247 331.484 214.797 334.017 214.466C337.331 214.04 340.018 213.72 342.078 213.507C344.161 213.27 345.676 212.88 346.623 212.335C347.594 211.791 348.079 210.844 348.079 209.494V209.21C348.079 205.706 347.12 202.984 345.203 201.043C343.309 199.101 340.432 198.131 336.574 198.131C332.573 198.131 329.436 199.007 327.163 200.759C324.89 202.51 323.292 204.381 322.369 206.369L314.414 203.528C315.835 200.214 317.729 197.634 320.096 195.787C322.487 193.917 325.092 192.615 327.909 191.881C330.75 191.123 333.543 190.744 336.289 190.744C338.041 190.744 340.054 190.957 342.326 191.384C344.623 191.786 346.836 192.626 348.967 193.905C351.121 195.183 352.909 197.113 354.329 199.693C355.75 202.274 356.46 205.73 356.46 210.062V246H348.079V238.614H347.653C347.085 239.797 346.138 241.064 344.812 242.413C343.486 243.763 341.723 244.911 339.521 245.858C337.319 246.805 334.632 247.278 331.46 247.278ZM332.738 239.75C336.053 239.75 338.846 239.099 341.119 237.797C343.415 236.495 345.144 234.814 346.304 232.754C347.487 230.695 348.079 228.528 348.079 226.256V218.585C347.724 219.011 346.943 219.402 345.735 219.757C344.552 220.089 343.179 220.384 341.616 220.645C340.077 220.882 338.574 221.095 337.106 221.284C335.662 221.45 334.49 221.592 333.591 221.71C331.413 221.994 329.377 222.456 327.483 223.095C325.612 223.711 324.097 224.646 322.937 225.901C321.801 227.132 321.233 228.812 321.233 230.943C321.233 233.855 322.31 236.057 324.464 237.548C326.642 239.016 329.4 239.75 332.738 239.75ZM371.756 246V191.455H379.853V199.977H380.563C381.7 197.065 383.534 194.804 386.067 193.195C388.601 191.561 391.643 190.744 395.194 190.744C398.792 190.744 401.787 191.561 404.178 193.195C406.593 194.804 408.475 197.065 409.825 199.977H410.393C411.79 197.16 413.885 194.923 416.678 193.266C419.472 191.585 422.822 190.744 426.728 190.744C431.605 190.744 435.594 192.271 438.695 195.325C441.797 198.356 443.347 203.079 443.347 209.494V246H434.967V209.494C434.967 205.47 433.866 202.593 431.664 200.865C429.462 199.137 426.87 198.273 423.887 198.273C420.052 198.273 417.081 199.433 414.974 201.753C412.867 204.049 411.813 206.961 411.813 210.489V246H403.29V208.642C403.29 205.541 402.284 203.043 400.272 201.149C398.26 199.232 395.667 198.273 392.495 198.273C390.317 198.273 388.281 198.853 386.387 200.013C384.517 201.173 383.002 202.783 381.842 204.842C380.705 206.878 380.137 209.234 380.137 211.909V246H371.756ZM459.807 246V173.273H468.188V200.119H468.898C469.513 199.172 470.366 197.965 471.455 196.497C472.567 195.006 474.153 193.68 476.213 192.52C478.296 191.336 481.114 190.744 484.665 190.744C489.258 190.744 493.306 191.893 496.81 194.189C500.313 196.485 503.048 199.741 505.013 203.955C506.978 208.169 507.96 213.14 507.96 218.869C507.96 224.646 506.978 229.653 505.013 233.891C503.048 238.105 500.325 241.372 496.845 243.692C493.365 245.988 489.352 247.136 484.807 247.136C481.303 247.136 478.498 246.556 476.391 245.396C474.284 244.213 472.662 242.875 471.526 241.384C470.389 239.868 469.513 238.614 468.898 237.619H467.903V246H459.807ZM468.045 218.727C468.045 222.847 468.649 226.481 469.857 229.629C471.064 232.754 472.828 235.205 475.148 236.98C477.468 238.732 480.309 239.608 483.67 239.608C487.174 239.608 490.098 238.685 492.442 236.838C494.809 234.968 496.585 232.458 497.768 229.31C498.976 226.137 499.58 222.61 499.58 218.727C499.58 214.892 498.988 211.436 497.804 208.358C496.644 205.257 494.88 202.806 492.513 201.007C490.169 199.184 487.222 198.273 483.67 198.273C480.261 198.273 477.397 199.137 475.077 200.865C472.757 202.57 471.005 204.961 469.821 208.038C468.637 211.092 468.045 214.655 468.045 218.727ZM555.155 223.699V191.455H563.536V246H555.155V236.767H554.587C553.308 239.537 551.32 241.893 548.621 243.834C545.922 245.751 542.513 246.71 538.393 246.71C534.984 246.71 531.954 245.964 529.303 244.473C526.651 242.958 524.568 240.685 523.053 237.655C521.537 234.601 520.78 230.754 520.78 226.114V191.455H529.161V225.545C529.161 229.523 530.273 232.695 532.499 235.062C534.748 237.43 537.612 238.614 541.092 238.614C543.176 238.614 545.295 238.081 547.449 237.016C549.627 235.95 551.45 234.317 552.918 232.115C554.409 229.913 555.155 227.108 555.155 223.699ZM617.522 203.67L609.993 205.801C609.52 204.546 608.821 203.327 607.898 202.143C606.998 200.936 605.767 199.942 604.205 199.161C602.642 198.379 600.642 197.989 598.203 197.989C594.865 197.989 592.084 198.758 589.858 200.297C587.657 201.812 586.556 203.741 586.556 206.085C586.556 208.169 587.313 209.814 588.828 211.021C590.344 212.229 592.711 213.235 595.931 214.04L604.027 216.028C608.904 217.212 612.538 219.023 614.929 221.462C617.32 223.876 618.516 226.99 618.516 230.801C618.516 233.926 617.616 236.72 615.817 239.182C614.042 241.644 611.556 243.585 608.36 245.006C605.164 246.426 601.447 247.136 597.209 247.136C591.646 247.136 587.041 245.929 583.395 243.514C579.749 241.099 577.441 237.572 576.471 232.932L584.425 230.943C585.183 233.879 586.615 236.08 588.722 237.548C590.853 239.016 593.634 239.75 597.067 239.75C600.973 239.75 604.075 238.921 606.371 237.264C608.691 235.583 609.851 233.571 609.851 231.227C609.851 229.333 609.188 227.747 607.863 226.469C606.537 225.167 604.501 224.196 601.755 223.557L592.664 221.426C587.668 220.242 583.999 218.408 581.655 215.922C579.335 213.412 578.175 210.276 578.175 206.511C578.175 203.434 579.039 200.711 580.767 198.344C582.519 195.976 584.899 194.118 587.905 192.768C590.935 191.419 594.368 190.744 598.203 190.744C603.601 190.744 607.839 191.928 610.917 194.295C614.018 196.663 616.22 199.788 617.522 203.67Z" fill="#007D25"/>
<defs>
<clipPath id="clip0_8_1173">
<rect width="183" height="183" fill="white" transform="translate(88)"/>
</clipPath>
<clipPath id="clip1_8_1173">
<rect width="183" height="183" fill="white" transform="translate(0 45)"/>
</clipPath>
</defs>
</svg>
