<svg width="271" height="272" viewBox="0 0 271 272" fill="none" xmlns="http://www.w3.org/2000/svg">
<mask id="mask0_8_1171" style="mask-type:alpha" maskUnits="userSpaceOnUse" x="88" y="89" width="183" height="183">
<path d="M179.584 180.585L269.169 225.377M179.584 180.585L90 225.377M179.584 180.585L179.585 91M179.584 180.585V270.169M179.584 180.585L90 135.792M179.584 180.585L269.169 135.792M269.169 225.377L179.584 270.169M269.169 225.377V135.792M90 225.377L179.584 270.169M90 225.377V135.792M179.585 91L269.169 135.792M179.585 91L90 135.792" stroke="#008427" stroke-width="3" stroke-miterlimit="1"/>
</mask>
<g mask="url(#mask0_8_1171)">
<path d="M348 9H-26V306H348V9Z" fill="#008427"/>
</g>
<g clip-path="url(#clip0_8_1171)">
<path d="M91.5057 49L179 92.8022V180L91 136.37L91.5057 49Z" fill="#008427"/>
<mask id="mask1_8_1171" style="mask-type:alpha" maskUnits="userSpaceOnUse" x="88" y="0" width="183" height="183">
<path d="M179.584 91.5845L269.169 136.377M179.584 91.5845L90 136.377M179.584 91.5845L179.585 2M179.584 91.5845V181.169M179.584 91.5845L90 46.7922M179.584 91.5845L269.169 46.7922M269.169 136.377L179.584 181.169M269.169 136.377V46.7922M90 136.377L179.584 181.169M90 136.377V46.7922M179.585 2L269.169 46.7922M179.585 2L90 46.7922" stroke="#008427" stroke-width="3" stroke-miterlimit="1"/>
</mask>
<g mask="url(#mask1_8_1171)">
<path d="M348 -80H-26V217H348V-80Z" fill="#008427"/>
</g>
</g>
<g clip-path="url(#clip1_8_1171)">
<path d="M3.50575 94L91 137.802V225L3 181.37L3.50575 94Z" fill="#008427"/>
<mask id="mask2_8_1171" style="mask-type:alpha" maskUnits="userSpaceOnUse" x="0" y="45" width="183" height="183">
<path d="M91.5844 136.585L181.169 181.377M91.5844 136.585L2 181.377M91.5844 136.585L91.5845 47M91.5844 136.585V226.169M91.5844 136.585L2 91.7922M91.5844 136.585L181.169 91.7922M181.169 181.377L91.5844 226.169M181.169 181.377V91.7922M2 181.377L91.5844 226.169M2 181.377V91.7922M91.5845 47L181.169 91.7922M91.5845 47L2 91.7922" stroke="#008427" stroke-width="3" stroke-miterlimit="1"/>
</mask>
<g mask="url(#mask2_8_1171)">
<path d="M260 -35H-114V262H260V-35Z" fill="#008427"/>
</g>
</g>
<defs>
<clipPath id="clip0_8_1171">
<rect width="183" height="183" fill="white" transform="translate(88)"/>
</clipPath>
<clipPath id="clip1_8_1171">
<rect width="183" height="183" fill="white" transform="translate(0 45)"/>
</clipPath>
</defs>
</svg>
